<svg width="93" height="19" viewBox="0 0 93 19" fill="none" xmlns="http://www.w3.org/2000/svg">
<path d="M0.392 18H6.944C9.08 18 10.856 17.352 12.272 16.08C13.688 14.784 14.408 12.624 14.408 9.576C14.408 3.84 10.952 1.2 7.112 1.2H0.392V18ZM5 13.776V5.424H6.584C8.624 5.424 9.8 6.6 9.8 9.576C9.8 11.184 9.512 12.288 8.936 12.888C8.384 13.488 7.592 13.776 6.584 13.776H5ZM15.7591 18H20.2471V12.12C20.2471 10.2 21.1111 9.24 22.7431 9.24C23.1031 9.24 23.4871 9.264 23.9431 9.312L24.4711 5.16C23.8711 5.064 23.3911 5.016 23.0071 5.016C21.8311 5.016 20.7271 5.472 20.0551 6.432H20.0071V5.28H15.7591V18Z" fill="#353535"/>
<path d="M25.9858 18H30.5938V12.72H37.0498V8.736H30.5938V5.424H37.2657V1.2H25.9858V18ZM38.8863 13.656C38.8863 16.632 40.5423 18.36 43.4223 18.36C44.8863 18.36 46.0383 17.832 46.9023 16.752H46.9503V18H51.2223V5.28H46.7343V12.576C46.7343 13.656 46.0623 14.328 44.9823 14.328C43.9023 14.328 43.3743 13.752 43.3743 12.576V5.28H38.8863V13.656ZM53.0894 13.656C53.0894 16.632 54.7454 18.36 57.6254 18.36C59.0894 18.36 60.2414 17.832 61.1054 16.752H61.1534V18H65.4254V5.28H60.9374V12.576C60.9374 13.656 60.2654 14.328 59.1854 14.328C58.1054 14.328 57.5774 13.752 57.5774 12.576V5.28H53.0894V13.656ZM67.5326 18H72.0206V15.096L73.4126 13.512H73.4606L75.6206 18H80.8766L76.4126 10.392L81.1166 5.28H75.4766L72.0686 9.528H72.0206V0.48H67.5326V18ZM81.2054 14.424C81.2054 16.896 82.8374 18.36 85.5974 18.36C87.0374 18.36 88.2614 17.784 88.7174 16.896H88.7654V18H92.6054V9.792C92.6054 6.792 90.3254 4.776 86.9414 4.776C84.0134 4.776 81.5894 6.72 81.2054 9.312L85.0934 10.104C85.3094 8.832 85.8854 8.232 86.9414 8.232C87.8774 8.232 88.3574 8.52 88.3574 9.072C88.3574 9.672 87.6854 10.008 85.4534 10.56C82.5494 11.256 81.2054 12.48 81.2054 14.424ZM88.4054 13.512C88.4054 14.256 87.4694 14.928 86.5094 14.928C85.7894 14.928 85.4294 14.688 85.4294 14.184C85.4294 13.68 85.8134 13.392 86.9654 13.032C87.9254 12.72 88.2374 12.528 88.3574 12.216H88.4054V13.512Z" fill="#75D0E3"/>
</svg>
